<?xml version="1.0" encoding="UTF-8" standalone="no"?>
<!DOCTYPE svg PUBLIC "-//W3C//DTD SVG 1.1//EN" "http://www.w3.org/Graphics/SVG/1.1/DTD/svg11.dtd">
<svg xmlns="http://www.w3.org/2000/svg" version="1.1" viewBox="0.00 0.00 1536.00 1024.00">
<circle fill="#ff7500" cx="329.78" cy="327.54" r="22.76"/>
<ellipse fill="#ff7500" cx="0.00" cy="0.00" transform="translate(424.62,324.37) rotate(-17.8)" rx="18.89" ry="18.66"/>
<circle fill="#ff7500" cx="385.38" cy="392.46" r="21.70"/>
<path fill="#ff7500" d="
  M 699.90 444.58
  A 0.42 0.42 0.0 0 0 700.32 445.00
  Q 725.44 444.84 744.92 445.02
  Q 748.17 445.06 748.21 448.79
  Q 748.38 463.27 748.26 477.51
  C 748.23 481.23 748.59 485.34 744.00 485.28
  Q 740.44 485.24 700.12 485.29
  A 0.22 0.22 0.0 0 0 699.90 485.51
  Q 699.90 544.18 699.97 552.49
  Q 700.04 561.49 705.05 569.26
  A 4.79 4.57 4.6 0 0 705.97 570.29
  C 713.69 576.77 722.59 577.06 732.26 575.95
  Q 739.71 575.10 744.81 574.14
  A 1.54 1.46 -36.7 0 1 745.72 574.25
  Q 748.23 575.44 748.25 577.26
  Q 748.45 592.16 748.26 606.00
  Q 748.22 609.17 747.95 610.64
  A 4.52 4.50 -9.5 0 1 745.71 613.77
  Q 740.93 616.46 734.15 617.56
  C 731.47 618.00 728.38 618.65 725.57 618.88
  Q 714.85 619.76 703.29 618.82
  Q 698.52 618.43 692.85 616.82
  Q 670.70 610.50 660.51 590.51
  Q 653.86 577.48 653.76 561.99
  Q 653.57 535.63 653.68 485.91
  A 0.69 0.69 0.0 0 0 652.98 485.22
  Q 641.32 485.40 630.15 485.24
  C 626.38 485.18 624.72 483.90 624.70 480.03
  Q 624.60 460.29 624.78 448.34
  C 624.82 445.65 626.52 445.02 629.03 445.01
  Q 642.55 444.94 653.22 444.98
  A 0.44 0.43 -0.0 0 0 653.66 444.55
  Q 653.66 420.35 653.69 403.48
  Q 653.70 400.12 655.61 398.90
  Q 656.99 398.02 660.62 398.01
  Q 687.18 397.93 697.00 398.04
  Q 699.74 398.07 699.92 401.27
  Q 700.02 403.17 699.90 444.58
  Z"
/>
<ellipse fill="#ff7500" cx="0.00" cy="0.00" transform="translate(323.72,419.36) rotate(-63.7)" rx="15.03" ry="14.81"/>
<path fill="#ff7500" d="
  M 1063.97 463.56
  A 0.44 0.44 0.0 0 0 1064.80 463.74
  Q 1067.15 459.29 1070.76 456.00
  Q 1080.08 447.51 1092.52 444.64
  Q 1095.25 444.01 1097.13 443.95
  Q 1098.85 443.89 1101.06 443.31
  A 6.47 6.37 -52.6 0 1 1102.48 443.11
  Q 1107.31 442.97 1114.26 442.16
  Q 1115.51 442.02 1117.49 443.38
  A 1.40 1.38 -76.4 0 1 1118.07 444.34
  Q 1118.37 446.69 1118.38 448.18
  Q 1118.49 463.35 1118.39 479.68
  C 1118.37 481.88 1117.39 485.17 1114.71 485.16
  C 1106.94 485.14 1099.02 485.04 1091.77 486.97
  Q 1074.75 491.50 1069.47 506.30
  Q 1067.13 512.84 1066.84 524.00
  Q 1066.83 524.46 1067.08 607.73
  Q 1067.09 611.48 1065.77 614.24
  Q 1064.99 615.88 1062.75 615.92
  Q 1060.41 615.97 1025.58 615.93
  A 2.59 2.58 87.0 0 1 1023.01 613.61
  Q 1022.74 611.00 1022.74 608.50
  Q 1022.75 582.49 1022.75 449.49
  Q 1022.75 445.06 1026.76 445.03
  Q 1047.20 444.88 1061.06 445.01
  A 1.71 1.71 0.0 0 1 1061.95 445.26
  Q 1064.02 446.50 1064.01 448.81
  Q 1063.97 463.44 1063.97 463.56
  Z"
/>
<path fill="#ff7500" d="
  M 558.11 615.02
  Q 551.82 617.06 545.24 617.86
  Q 539.09 618.62 538.99 618.63
  Q 522.71 620.45 506.06 617.42
  Q 487.33 614.01 472.34 602.67
  Q 445.54 582.39 439.45 549.30
  C 430.55 500.86 460.44 452.42 510.02 444.44
  Q 512.69 444.01 514.50 443.92
  C 516.48 443.82 518.18 443.23 520.50 443.11
  Q 532.61 442.50 543.03 444.02
  Q 581.24 449.56 602.87 481.45
  Q 619.72 506.32 617.77 536.76
  C 617.22 545.39 615.66 554.05 612.75 561.87
  C 603.40 586.99 583.93 606.67 558.11 615.02
  Z
  M 482.88 530.88
  Q 482.76 536.96 483.03 539.25
  C 485.27 558.39 498.81 574.42 517.97 577.94
  C 547.58 583.40 573.47 563.31 574.05 532.61
  C 574.64 501.92 549.53 480.86 519.73 485.18
  C 500.45 487.98 486.31 503.48 483.35 522.52
  Q 482.99 524.80 482.88 530.88
  Z"
/>
<path fill="#ff7500" d="
  M 1128.78 490.56
  Q 1147.62 452.96 1188.22 444.62
  C 1191.72 443.90 1195.03 443.97 1198.65 443.26
  A 9.38 9.10 -49.5 0 1 1200.36 443.10
  C 1205.43 443.07 1209.32 442.75 1213.19 443.59
  C 1215.72 444.13 1218.45 443.86 1221.56 444.39
  Q 1240.27 447.59 1255.43 458.50
  Q 1288.03 481.99 1292.79 521.09
  Q 1294.21 532.71 1291.81 547.94
  C 1287.50 575.27 1268.69 598.79 1244.16 611.17
  Q 1234.73 615.93 1223.00 617.93
  Q 1204.21 621.12 1185.63 617.11
  Q 1160.42 611.67 1144.28 594.98
  Q 1127.47 577.59 1122.35 555.67
  Q 1117.82 536.22 1120.45 516.84
  Q 1122.26 503.58 1128.78 490.56
  Z
  M 1161.73 531.56
  Q 1161.72 539.29 1163.30 545.23
  C 1167.65 561.54 1179.95 574.35 1196.61 577.70
  C 1212.74 580.94 1229.72 576.22 1240.56 563.27
  C 1248.17 554.16 1251.38 543.43 1251.40 531.66
  C 1251.41 519.88 1248.22 509.14 1240.62 500.02
  C 1229.81 487.05 1212.84 482.29 1196.71 485.50
  C 1180.04 488.81 1167.71 501.60 1163.33 517.89
  Q 1161.73 523.84 1161.73 531.56
  Z"
/>
<rect fill="#ff7500" x="363.81" y="444.95" width="44.16" height="171.00" rx="4.01"/>
<path fill="#ff7500" d="
  M 858.55 562.29
  Q 858.59 562.27 858.66 562.28
  A 0.19 0.03 -68.9 0 0 858.75 562.13
  Q 879.07 507.83 901.39 450.14
  Q 901.97 448.64 902.72 447.23
  A 2.87 2.76 82.5 0 1 903.22 446.55
  Q 904.81 444.97 907.26 444.97
  Q 936.50 444.96 947.00 444.97
  Q 949.27 444.97 950.20 445.19
  A 0.96 0.95 87.2 0 1 950.89 445.82
  Q 951.47 447.59 950.94 448.91
  Q 946.19 460.85 937.10 483.22
  Q 934.32 490.07 888.41 602.05
  Q 873.53 638.34 857.78 676.01
  Q 856.12 679.97 851.52 679.96
  Q 824.39 679.89 811.99 679.96
  A 1.60 1.41 -32.7 0 1 811.53 679.89
  Q 809.43 679.20 810.09 676.77
  Q 810.61 674.85 812.17 670.88
  Q 813.81 666.71 833.24 618.96
  Q 834.27 616.46 833.91 614.49
  A 1.17 0.97 -66.3 0 0 833.85 614.28
  C 812.70 564.28 790.10 509.35 768.38 457.87
  Q 766.38 453.13 765.23 449.53
  Q 764.36 446.78 766.52 445.30
  A 2.06 2.02 27.2 0 1 767.68 444.94
  L 810.67 444.94
  A 2.38 2.38 0.0 0 1 811.99 445.34
  C 815.24 447.48 816.17 452.13 817.52 455.63
  Q 836.71 505.57 857.98 562.06
  A 0.42 0.41 66.8 0 0 858.55 562.29
  Z"
/>
<ellipse fill="#ff7500" cx="0.00" cy="0.00" transform="translate(967.72,589.57) rotate(-6.1)" rx="30.05" ry="29.91"/>
</svg>
